<svg xmlns="http://www.w3.org/2000/svg" viewBox="0 0 612 237.59"><path d="M306.52 203.65v33.94H169.36V135.77h-33.59v-33.95h33.59l.35.35 33.59 33.6.23 67.88zM101.48 237.59V135.77h-33.6v-33.94h33.6l33.94 33.94.35 101.82zM33.59 237.59V135.77H0v-33.94h33.59l33.94 33.94.35 101.82z" style="fill:#231f20"/><path d="M169.71 101.82v.35l-.35-.35zM577.71 237.59V135.77h-33.59v-33.94h33.59l33.94 33.94.35 101.82zM476.23 101.82h33.6v33.95h-33.6z" style="fill:#231f20"/><path d="M544.12 237.59h-34.29V101.82l33.94 33.95zM441.94 237.59V135.77h-33.59v-33.94h33.59l33.94 33.94.35 101.82zM578.06 101.83v.34l-.35-.34zM408.35 135.77v101.82h-33.94V135.77h-33.94v101.82h-33.95V33.94h-33.94V0h33.94l33.95 33.94v67.89h33.94z" style="fill:#231f20"/></svg>